<?xml version="1.0" encoding="utf-8"?>
<!-- Generator: Adobe Illustrator 22.1.0, SVG Export Plug-In . SVG Version: 6.00 Build 0)  -->
<svg version="1.1" id="Calque_1" xmlns="http://www.w3.org/2000/svg" xmlns:xlink="http://www.w3.org/1999/xlink" x="0px" y="0px"
	 width="200px" height="36px" viewBox="0 0 200 36" style="enable-background:new 0 0 200 36;" xml:space="preserve">
<style type="text/css">
	.st0{fill:url(#SVGID_1_);}
	.st1{fill:url(#SVGID_2_);}
	.st2{opacity:0.1;}
	.st3{fill:#E6E6E6;}
	.st4{fill:url(#SVGID_3_);}
	.st5{fill:url(#SVGID_4_);}
</style>
<g transform="translate(.5 1.5)">
	<g transform="translate(65.398 6.007)">
		
			<linearGradient id="SVGID_1_" gradientUnits="userSpaceOnUse" x1="-460.2698" y1="480.429" x2="-459.2698" y2="481.429" gradientTransform="matrix(86.3507 0 0 -16.0032 39791.7109 7708.5991)">
			<stop  offset="0" style="stop-color:#E6007A"/>
			<stop  offset="1" style="stop-color:#EB7575"/>
		</linearGradient>
		<path class="st0" d="M103,5.7c0,0.9-0.8,1.7-1.7,1.7c-0.9,0-1.7-0.8-1.7-1.7c0-0.9,0.8-1.7,1.7-1.7C102.3,4.1,103,4.8,103,5.7z
			 M101.3,8.9h0.2c0.9,0,1.6,0.7,1.6,1.6v7.6c0,0.9-0.7,1.6-1.6,1.6h-0.2c-0.9,0-1.6-0.7-1.6-1.6v-7.6C99.7,9.6,100.4,8.9,101.3,8.9
			z M82.6,5.7c0,0.9-0.8,1.7-1.7,1.7c-0.9,0-1.7-0.8-1.7-1.7c0-0.9,0.8-1.7,1.7-1.7C81.9,4.1,82.6,4.8,82.6,5.7z M48.1,5.2L48.1,5.2
			c0.7,0,1.3,0.4,1.6,1.1l3.5,9.6l3.6-9.6c0.2-0.6,0.8-1,1.5-1c1.1,0,1.9,1.2,1.5,2.2l-4.5,11.1c-0.3,0.8-1.2,1.4-2.1,1.4
			c-0.9,0-1.7-0.5-2.1-1.4L46.6,7.4C46.1,6.3,46.9,5.2,48.1,5.2z M61,12.5L61,12.5c0-4.2,3.3-7.7,7.8-7.7c4.5,0,7.7,3.4,7.7,7.5v0.1
			c0,4.1-3.3,7.6-7.8,7.6C64.3,20.1,61,16.7,61,12.5z M73.2,12.5L73.2,12.5c0-2.6-1.8-4.7-4.5-4.7c-2.7,0-4.4,2.1-4.4,4.6v0.1
			c0,2.5,1.8,4.7,4.4,4.7C71.5,17.1,73.2,15,73.2,12.5z M80.8,8.9H81c0.9,0,1.6,0.7,1.6,1.6v7.6c0,0.9-0.7,1.6-1.6,1.6h-0.2
			c-0.9,0-1.6-0.7-1.6-1.6v-7.6C79.3,9.6,80,8.9,80.8,8.9z M85.7,16.7L85.7,16.7c0.4-0.7,1.2-0.8,1.8-0.5c1.3,0.7,2.5,1.1,3.7,1.1
			c1.4,0,2.3-0.6,2.3-1.6v-0.1c0-1.1-1.5-1.5-3.3-2c-2.1-0.6-4.5-1.5-4.5-4.3V9.4c0-2.8,2.3-4.4,5.2-4.4c1.4,0,2.8,0.4,4.1,1
			c0.7,0.3,1,1.2,0.6,1.8l0,0.1c-0.3,0.6-1.1,0.8-1.7,0.6c-1.1-0.5-2.1-0.8-3-0.8c-1.3,0-2,0.6-2,1.4v0.1c0,1.1,1.6,1.5,3.3,2.1
			c2.1,0.7,4.5,1.6,4.5,4.2v0.1c0,3.1-2.4,4.6-5.4,4.6c-1.7,0-3.5-0.5-5.1-1.4C85.4,18.2,85.2,17.4,85.7,16.7z M107.8,5.2
			c0.9,0,1.7,0.7,1.7,1.7v0.6c0.9-1.4,2.3-2.5,4.5-2.5c3.3,0,5.2,2.2,5.2,5.6v7.6c0,0.9-0.7,1.7-1.7,1.7c-0.9,0-1.7-0.7-1.7-1.7
			v-6.6c0-2.3-1.1-3.6-3.1-3.6c-1.9,0-3.3,1.4-3.3,3.6v6.5c0,0.9-0.7,1.7-1.7,1.7h0c-0.9,0-1.7-0.7-1.7-1.7V6.8
			C106.2,5.9,106.9,5.2,107.8,5.2z M121.9,16.7L121.9,16.7c0.4-0.7,1.2-0.8,1.8-0.5c1.3,0.7,2.5,1.1,3.7,1.1c1.4,0,2.3-0.6,2.3-1.6
			v-0.1c0-1.1-1.5-1.5-3.3-2c-2.1-0.6-4.5-1.5-4.5-4.3V9.4c0-2.8,2.3-4.4,5.2-4.4c1.4,0,2.8,0.4,4.1,1c0.7,0.3,1,1.2,0.6,1.8l0,0.1
			c-0.3,0.6-1.1,0.8-1.7,0.6c-1.1-0.5-2.1-0.8-3-0.8c-1.3,0-2,0.6-2,1.4v0.1c0,1.1,1.6,1.5,3.3,2.1c2.1,0.7,4.5,1.6,4.5,4.2v0.1
			c0,3.1-2.4,4.6-5.4,4.6c-1.7,0-3.5-0.5-5.1-1.4C121.7,18.2,121.5,17.4,121.9,16.7z"/>
		
			<linearGradient id="SVGID_2_" gradientUnits="userSpaceOnUse" x1="-455.0031" y1="487.91" x2="-456.0031" y2="486.91" gradientTransform="matrix(45.1349 0 0 -20.4435 20584.1172 9975.7549)">
			<stop  offset="0" style="stop-color:#96E077"/>
			<stop  offset="1" style="stop-color:#50CC7D"/>
		</linearGradient>
		<path class="st1" d="M10,14.9v-1c-0.9-0.3-2-0.6-3.3-0.6c-2.1,0-3.4,0.9-3.4,2.4v0.1c0,1.4,1.2,2.2,2.8,2.2
			C8.3,18.1,10,16.8,10,14.9 M0,16L0,16c0-3.2,2.5-4.7,6-4.7c1.6,0,2.8,0.2,3.9,0.6v-0.4c0-2.1-1.3-3.2-3.6-3.2
			c-1.1,0-2,0.2-2.9,0.4C2.7,9,1.9,8.6,1.7,7.9C1.5,7.2,1.8,6.4,2.6,6.1c1.2-0.4,2.5-0.7,4.2-0.7c2.2,0,3.8,0.6,4.8,1.6
			c1.1,1,1.6,2.6,1.6,4.5v7.8c0,0.5-0.4,0.9-0.9,0.9h-1.5c-0.5,0-0.9-0.4-0.9-0.9v-0.9c-1,1.2-2.5,2.1-4.7,2.1C2.4,20.5,0,18.9,0,16
			z M18.2,0.1c0.9,0,1.7,0.7,1.7,1.7v16.8c0,0.9-0.7,1.7-1.7,1.7s-1.7-0.7-1.7-1.7V1.7C16.5,0.8,17.3,0.1,18.2,0.1z M25.2,0.1
			c0.9,0,1.7,0.7,1.7,1.7v16.8c0,0.9-0.7,1.7-1.7,1.7s-1.7-0.7-1.7-1.7V1.7C23.6,0.8,24.3,0.1,25.2,0.1z M29.6,13L29.6,13
			c0-4.2,3.3-7.7,7.8-7.7c4.5,0,7.7,3.4,7.7,7.5v0.1c0,4.1-3.3,7.6-7.8,7.6C32.9,20.5,29.6,17.1,29.6,13z M41.8,13L41.8,13
			c0-2.6-1.8-4.7-4.5-4.7c-2.7,0-4.4,2.1-4.4,4.6v0.1c0,2.5,1.8,4.7,4.4,4.7C40.1,17.6,41.8,15.5,41.8,13z"/>
	</g>
	<path class="st2" d="M23.7,31.6c0,0.7-3.5,1.3-7.8,1.3s-7.8-0.6-7.8-1.3c0-0.7,3.5-1.3,7.8-1.3S23.7,30.8,23.7,31.6 M49.2,31.6
		c0,0.7-3.5,1.3-7.8,1.3c-4.3,0-7.8-0.6-7.8-1.3c0-0.7,3.5-1.3,7.8-1.3C45.7,30.2,49.2,30.8,49.2,31.6"/>
	<g transform="translate(22.667)">
		<path class="st3" d="M6.6,6.4L6.5,0.7c0-0.3-0.3-0.6-0.6-0.6c-0.3,0-0.6,0.3-0.6,0.6l0.1,5.7c0,0.3,0.3,0.6,0.6,0.6
			C6.4,7.1,6.6,6.8,6.6,6.4 M3.3,6.5L1.6,3.4C1.4,3.1,1.1,3,0.8,3.1C0.5,3.3,0.3,3.7,0.5,4l1.7,3.1C2.3,7.4,2.7,7.5,3,7.4
			C3.3,7.2,3.4,6.8,3.3,6.5 M8.7,6.5l1.7-3.1c0.2-0.3,0.5-0.4,0.8-0.3c0.3,0.2,0.4,0.5,0.3,0.8L9.8,7.1C9.6,7.4,9.2,7.5,8.9,7.4
			C8.6,7.2,8.5,6.8,8.7,6.5"/>
	</g>
	
		<linearGradient id="SVGID_3_" gradientUnits="userSpaceOnUse" x1="-385.2858" y1="498.5213" x2="-384.2858" y2="499.5213" gradientTransform="matrix(28.1573 0 0 -26.8193 10849.8467 13403.334)">
		<stop  offset="0" style="stop-color:#E6007A"/>
		<stop  offset="1" style="stop-color:#EB7575"/>
	</linearGradient>
	<path class="st4" d="M20.3,18.2c-0.1,0.3-0.4,0.4-0.6,0.4c-0.4-0.1-0.9-0.2-1.3-0.3c-0.3-0.1-0.4-0.3-0.4-0.6c0,0,0,0,0,0
		c0.2-0.7,1-1.1,1.7-0.8c0.4,0.2,0.6,0.6,0.7,1C20.4,18,20.3,18.1,20.3,18.2 M18,22.6c-1.2,1.3-2.9,2-4.5,1.6
		c-1.6-0.4-2.8-1.8-3.2-3.6c-0.1-0.4,0.3-0.9,0.6-0.8l6.9,1.8C18.2,21.7,18.3,22.2,18,22.6 M10.3,15.7
		C10.3,15.7,10.4,15.6,10.3,15.7c0.2-0.8,1-1.1,1.7-0.8c0.4,0.2,0.6,0.5,0.7,1c0,0.2,0,0.3,0,0.5c-0.1,0.3-0.4,0.4-0.6,0.3
		c-0.4-0.1-0.9-0.2-1.3-0.3C10.5,16.2,10.3,15.9,10.3,15.7 M27.2,16.4l-7.1-9.6c-1-1.4-2.7-1.8-4.3-1.1L5.1,10.4
		c-1.4,0.6-2.5,2-3,3.7l-1.9,7.1c-0.8,2.8,0.4,5.5,2.6,6.1L20.7,32c2.2,0.6,4.6-1.1,5.4-3.9l1.9-7C28.4,19.4,28.1,17.6,27.2,16.4"/>
	
		<linearGradient id="SVGID_4_" gradientUnits="userSpaceOnUse" x1="-384.312" y1="499.5475" x2="-385.312" y2="498.5475" gradientTransform="matrix(28.1573 0 0 -26.8193 10878.6865 13403.3369)">
		<stop  offset="0" style="stop-color:#96E077"/>
		<stop  offset="1" style="stop-color:#50CC7D"/>
	</linearGradient>
	<path class="st5" d="M46.3,16.4c-0.4,0.1-0.9,0.2-1.3,0.3c-0.3,0.1-0.5-0.1-0.6-0.3c0-0.1-0.1-0.3,0-0.5c0-0.4,0.3-0.8,0.7-1
		c0.7-0.3,1.5,0.1,1.7,0.8c0,0,0,0,0,0C46.7,16,46.6,16.3,46.3,16.4 M46,22.5c-0.5,0.5-1.1,0.9-1.8,1.2c-2.2,1-4.7,0.4-6.4-1.1
		c-0.3-0.3-0.4-0.9,0-1.2c0.3-0.3,0.7-0.2,1,0c1.2,1.2,3.1,1.6,4.8,0.9c0.5-0.2,1-0.5,1.4-0.9c0.3-0.3,0.8-0.3,1.1,0c0,0,0,0,0,0
		C46.3,21.8,46.3,22.2,46,22.5 M37,18.2c0-0.1,0-0.2,0-0.3c0-0.4,0.3-0.8,0.7-1c0.7-0.3,1.5,0.1,1.7,0.8c0,0,0,0,0,0
		c0.1,0.3-0.1,0.5-0.4,0.6c-0.4,0.1-0.9,0.2-1.3,0.3C37.4,18.6,37.1,18.5,37,18.2 M56.8,21.1l-1.9-7.1c-0.5-1.7-1.6-3.1-3-3.7
		L41.2,5.7c-1.6-0.7-3.3-0.3-4.3,1.1l-7.1,9.6c-0.9,1.2-1.2,3-0.7,4.7l1.9,7c0.8,2.8,3.1,4.5,5.4,3.9l17.8-4.9
		C56.4,26.6,57.5,23.9,56.8,21.1"/>
</g>
</svg>
